/* XPM */
static char *key[] = {
/* columns rows colors chars-per-pixel */
"32 32 3 1",
"  c black",
". c #EDD92A",
"X c #8EF9FF",
/* pixels */
"XXXXXXXXXXXXXXXXXXXXXXXXXXXXXXXX",
"XXXXXXXXXXXXXXXXXXXXXXXXXXXXXXXX",
"XXXXXXXXXXXXXXXXXXXXXXXXXXXXXXXX",
"XXXX....XXXXXXXXXXXXXXXXXXXXXXXX",
"XXXXX..XXXXXXXX....XXXXXXXXXXXXX",
"XXXXX..XXXXXXXXX..XXX          X",
"XXXXX..XXX   XXX..XXXX        XX",
"XXXX    X ... X    XXXX      XXX",
"XXXX    X . . X    XXXXX    XXXX",
"XXX...... ... .........XX  XXXXX",
"XXXX.....     ..........X  XXXXX",
"XXXXX..XX ... XX XX..X......XXXX",
"XXXXX..XX ... XXX X..XX.....XXXX",
"XXXXX..XX ... XX XXXXXXXX  XXXXX",
"XX..X..XX ... XXX X..XXXXXXXXXXX",
"XX..X..X ..... X XX..XXXXXXXXXXX",
"XX                      XXXXXXXX",
"X                        XXXXXXX",
"X                        XXXXXXX",
"XXXXXXXXXXXXXXXXXXXXXXXXXXXXXXXX",
"XXXXXXXXXXXXXXXXXXXXXXXXXXXXXXXX",
"XXXXXXXXXXXXXXXXXXXXXXXXXXXXXXXX",
"XXXX      XX  XX      XX  XXXXXX",
"XXXX      XX  XX      XX  XXXXXX",
"XXXXXXXXXXXXXXXXXXXXXXXXXXXXXXXX",
"XXXXXXXXXXXXXXXXXXXXXXXXXXXXXXXX",
"XX      XX      XX  XX      XXXX",
"XX      XX      XX  XX      XXXX",
"XXXXXXXXXXXXXXXXXXXXXXXXXXXXXXXX",
"XXXXXXXXXXXXXXXXXXXXXXXXXXXXXXXX",
"XXXXXXXXXXXXXXXXXXXXXXXXXXXXXXXX",
"XXXXXXXXXXXXXXXXXXXXXXXXXXXXXXXX"
};
